<mxfile host="Electron" agent="Mozilla/5.0 (Windows NT 10.0; Win64; x64) AppleWebKit/537.36 (KHTML, like Gecko) draw.io/24.7.8 Chrome/128.0.6613.36 Electron/32.0.1 Safari/537.36" version="24.7.8">
  <diagram name="Page-1" id="pXFPgFpa1h9-f-A75X2E">
    <mxGraphModel dx="924" dy="827" grid="1" gridSize="10" guides="1" tooltips="1" connect="1" arrows="1" fold="1" page="1" pageScale="1" pageWidth="1100" pageHeight="850" math="0" shadow="0">
      <root>
        <mxCell id="0" />
        <mxCell id="1" parent="0" />
        <mxCell id="9zBWlCoCutwd3zZUJokF-2" value="User" style="shape=umlActor;verticalLabelPosition=bottom;verticalAlign=top;html=1;outlineConnect=0;" vertex="1" parent="1">
          <mxGeometry x="40" y="303" width="90" height="170" as="geometry" />
        </mxCell>
        <mxCell id="9zBWlCoCutwd3zZUJokF-3" value="" style="endArrow=classic;html=1;rounded=0;exitX=1;exitY=0.3333333333333333;exitDx=0;exitDy=0;exitPerimeter=0;entryX=0;entryY=0.5;entryDx=0;entryDy=0;" edge="1" parent="1" source="9zBWlCoCutwd3zZUJokF-2" target="9zBWlCoCutwd3zZUJokF-5">
          <mxGeometry width="50" height="50" relative="1" as="geometry">
            <mxPoint x="190" y="353" as="sourcePoint" />
            <mxPoint x="240" y="303" as="targetPoint" />
          </mxGeometry>
        </mxCell>
        <mxCell id="9zBWlCoCutwd3zZUJokF-4" value="Looks up information" style="edgeLabel;html=1;align=center;verticalAlign=middle;resizable=0;points=[];" vertex="1" connectable="0" parent="9zBWlCoCutwd3zZUJokF-3">
          <mxGeometry x="-0.0842" y="1" relative="1" as="geometry">
            <mxPoint x="10" y="3" as="offset" />
          </mxGeometry>
        </mxCell>
        <mxCell id="9zBWlCoCutwd3zZUJokF-5" value="Displays infromation" style="ellipse;whiteSpace=wrap;html=1;" vertex="1" parent="1">
          <mxGeometry x="240" y="250" width="120" height="80" as="geometry" />
        </mxCell>
        <mxCell id="9zBWlCoCutwd3zZUJokF-6" value="Updates Emergency items Database" style="ellipse;whiteSpace=wrap;html=1;" vertex="1" parent="1">
          <mxGeometry x="430" y="263" width="120" height="80" as="geometry" />
        </mxCell>
        <mxCell id="9zBWlCoCutwd3zZUJokF-8" value="" style="endArrow=none;html=1;rounded=0;exitX=1;exitY=0.5;exitDx=0;exitDy=0;entryX=0;entryY=0.5;entryDx=0;entryDy=0;" edge="1" parent="1" source="9zBWlCoCutwd3zZUJokF-5" target="9zBWlCoCutwd3zZUJokF-6">
          <mxGeometry width="50" height="50" relative="1" as="geometry">
            <mxPoint x="420" y="413" as="sourcePoint" />
            <mxPoint x="470" y="363" as="targetPoint" />
          </mxGeometry>
        </mxCell>
        <mxCell id="9zBWlCoCutwd3zZUJokF-9" value="" style="swimlane;startSize=0;" vertex="1" parent="1">
          <mxGeometry x="140" y="190" width="590" height="1680" as="geometry" />
        </mxCell>
        <mxCell id="9zBWlCoCutwd3zZUJokF-23" value="Authenticate" style="ellipse;whiteSpace=wrap;html=1;" vertex="1" parent="9zBWlCoCutwd3zZUJokF-9">
          <mxGeometry x="120" y="413" width="120" height="80" as="geometry" />
        </mxCell>
        <mxCell id="9zBWlCoCutwd3zZUJokF-24" value="Invalid username&lt;div&gt;Password&lt;/div&gt;" style="ellipse;whiteSpace=wrap;html=1;" vertex="1" parent="9zBWlCoCutwd3zZUJokF-9">
          <mxGeometry x="300" y="403" width="120" height="80" as="geometry" />
        </mxCell>
        <mxCell id="9zBWlCoCutwd3zZUJokF-25" value="" style="endArrow=none;html=1;rounded=0;exitX=1;exitY=0.5;exitDx=0;exitDy=0;entryX=0;entryY=0.5;entryDx=0;entryDy=0;" edge="1" parent="9zBWlCoCutwd3zZUJokF-9" source="9zBWlCoCutwd3zZUJokF-23" target="9zBWlCoCutwd3zZUJokF-24">
          <mxGeometry width="50" height="50" relative="1" as="geometry">
            <mxPoint x="290" y="516" as="sourcePoint" />
            <mxPoint x="340" y="466" as="targetPoint" />
          </mxGeometry>
        </mxCell>
        <mxCell id="9zBWlCoCutwd3zZUJokF-30" value="Sends notifcation" style="ellipse;whiteSpace=wrap;html=1;" vertex="1" parent="9zBWlCoCutwd3zZUJokF-9">
          <mxGeometry x="110" y="523" width="120" height="80" as="geometry" />
        </mxCell>
        <mxCell id="9zBWlCoCutwd3zZUJokF-31" value="Displays infromation" style="ellipse;whiteSpace=wrap;html=1;" vertex="1" parent="9zBWlCoCutwd3zZUJokF-9">
          <mxGeometry x="310" y="533" width="120" height="80" as="geometry" />
        </mxCell>
        <mxCell id="9zBWlCoCutwd3zZUJokF-32" value="Notify" style="endArrow=none;html=1;rounded=0;exitX=1;exitY=0.5;exitDx=0;exitDy=0;entryX=0;entryY=0.5;entryDx=0;entryDy=0;" edge="1" parent="9zBWlCoCutwd3zZUJokF-9" source="9zBWlCoCutwd3zZUJokF-30" target="9zBWlCoCutwd3zZUJokF-31">
          <mxGeometry width="50" height="50" relative="1" as="geometry">
            <mxPoint x="290.37" y="626" as="sourcePoint" />
            <mxPoint x="340.37" y="576" as="targetPoint" />
          </mxGeometry>
        </mxCell>
        <mxCell id="9zBWlCoCutwd3zZUJokF-44" value="Error Occurred" style="ellipse;whiteSpace=wrap;html=1;" vertex="1" parent="9zBWlCoCutwd3zZUJokF-9">
          <mxGeometry x="340" y="868" width="120" height="80" as="geometry" />
        </mxCell>
        <mxCell id="9zBWlCoCutwd3zZUJokF-38" value="Enters login credentals" style="ellipse;whiteSpace=wrap;html=1;" vertex="1" parent="9zBWlCoCutwd3zZUJokF-9">
          <mxGeometry x="110" y="718" width="120" height="80" as="geometry" />
        </mxCell>
        <mxCell id="9zBWlCoCutwd3zZUJokF-39" value="Updates user database" style="ellipse;whiteSpace=wrap;html=1;" vertex="1" parent="9zBWlCoCutwd3zZUJokF-9">
          <mxGeometry x="360" y="708" width="120" height="80" as="geometry" />
        </mxCell>
        <mxCell id="9zBWlCoCutwd3zZUJokF-40" value="Checks" style="endArrow=none;html=1;rounded=0;exitX=1;exitY=0.5;exitDx=0;exitDy=0;entryX=0;entryY=0.5;entryDx=0;entryDy=0;" edge="1" parent="9zBWlCoCutwd3zZUJokF-9" source="9zBWlCoCutwd3zZUJokF-38" target="9zBWlCoCutwd3zZUJokF-39">
          <mxGeometry width="50" height="50" relative="1" as="geometry">
            <mxPoint x="290" y="871" as="sourcePoint" />
            <mxPoint x="340" y="821" as="targetPoint" />
          </mxGeometry>
        </mxCell>
        <mxCell id="9zBWlCoCutwd3zZUJokF-45" value="Invalid username&lt;div&gt;Password&lt;/div&gt;" style="ellipse;whiteSpace=wrap;html=1;" vertex="1" parent="9zBWlCoCutwd3zZUJokF-9">
          <mxGeometry x="130" y="868" width="120" height="80" as="geometry" />
        </mxCell>
        <mxCell id="9zBWlCoCutwd3zZUJokF-46" value="Checks" style="endArrow=none;html=1;rounded=0;exitX=0.5;exitY=1;exitDx=0;exitDy=0;entryX=0.5;entryY=0;entryDx=0;entryDy=0;" edge="1" parent="9zBWlCoCutwd3zZUJokF-9" source="9zBWlCoCutwd3zZUJokF-38" target="9zBWlCoCutwd3zZUJokF-45">
          <mxGeometry width="50" height="50" relative="1" as="geometry">
            <mxPoint x="220" y="768" as="sourcePoint" />
            <mxPoint x="410" y="768" as="targetPoint" />
          </mxGeometry>
        </mxCell>
        <mxCell id="9zBWlCoCutwd3zZUJokF-47" value="Checks" style="endArrow=none;html=1;rounded=0;exitX=1;exitY=0.5;exitDx=0;exitDy=0;entryX=0;entryY=0.5;entryDx=0;entryDy=0;" edge="1" parent="9zBWlCoCutwd3zZUJokF-9" source="9zBWlCoCutwd3zZUJokF-45" target="9zBWlCoCutwd3zZUJokF-44">
          <mxGeometry width="50" height="50" relative="1" as="geometry">
            <mxPoint x="230" y="778" as="sourcePoint" />
            <mxPoint x="420" y="778" as="targetPoint" />
          </mxGeometry>
        </mxCell>
        <mxCell id="9zBWlCoCutwd3zZUJokF-48" value="Checks" style="endArrow=none;html=1;rounded=0;exitX=0.5;exitY=1;exitDx=0;exitDy=0;entryX=0.5;entryY=0;entryDx=0;entryDy=0;" edge="1" parent="9zBWlCoCutwd3zZUJokF-9" source="9zBWlCoCutwd3zZUJokF-39" target="9zBWlCoCutwd3zZUJokF-44">
          <mxGeometry width="50" height="50" relative="1" as="geometry">
            <mxPoint x="240" y="788" as="sourcePoint" />
            <mxPoint x="430" y="788" as="targetPoint" />
          </mxGeometry>
        </mxCell>
        <mxCell id="9zBWlCoCutwd3zZUJokF-35" value="New User" style="shape=umlActor;verticalLabelPosition=bottom;verticalAlign=top;html=1;outlineConnect=0;" vertex="1" parent="9zBWlCoCutwd3zZUJokF-9">
          <mxGeometry x="-90" y="761" width="90" height="170" as="geometry" />
        </mxCell>
        <mxCell id="9zBWlCoCutwd3zZUJokF-36" value="" style="endArrow=classic;html=1;rounded=0;exitX=1;exitY=0.3333333333333333;exitDx=0;exitDy=0;exitPerimeter=0;entryX=0;entryY=0.5;entryDx=0;entryDy=0;" edge="1" parent="9zBWlCoCutwd3zZUJokF-9" source="9zBWlCoCutwd3zZUJokF-35" target="9zBWlCoCutwd3zZUJokF-38">
          <mxGeometry width="50" height="50" relative="1" as="geometry">
            <mxPoint x="60" y="811" as="sourcePoint" />
            <mxPoint x="110" y="761" as="targetPoint" />
          </mxGeometry>
        </mxCell>
        <mxCell id="9zBWlCoCutwd3zZUJokF-37" value="Creates new user" style="edgeLabel;html=1;align=center;verticalAlign=middle;resizable=0;points=[];" vertex="1" connectable="0" parent="9zBWlCoCutwd3zZUJokF-36">
          <mxGeometry x="-0.0842" y="1" relative="1" as="geometry">
            <mxPoint x="10" y="3" as="offset" />
          </mxGeometry>
        </mxCell>
        <mxCell id="9zBWlCoCutwd3zZUJokF-41" value="Sever" style="shape=umlActor;verticalLabelPosition=bottom;verticalAlign=top;html=1;outlineConnect=0;" vertex="1" parent="9zBWlCoCutwd3zZUJokF-9">
          <mxGeometry x="630" y="761" width="90" height="170" as="geometry" />
        </mxCell>
        <mxCell id="9zBWlCoCutwd3zZUJokF-42" value="Updates" style="endArrow=none;html=1;rounded=0;exitX=1;exitY=0.5;exitDx=0;exitDy=0;entryX=0;entryY=0.3333333333333333;entryDx=0;entryDy=0;entryPerimeter=0;" edge="1" parent="9zBWlCoCutwd3zZUJokF-9" source="9zBWlCoCutwd3zZUJokF-39" target="9zBWlCoCutwd3zZUJokF-41">
          <mxGeometry width="50" height="50" relative="1" as="geometry">
            <mxPoint x="470" y="871" as="sourcePoint" />
            <mxPoint x="520" y="821" as="targetPoint" />
          </mxGeometry>
        </mxCell>
        <mxCell id="9zBWlCoCutwd3zZUJokF-49" value="Updates Database" style="ellipse;whiteSpace=wrap;html=1;" vertex="1" parent="9zBWlCoCutwd3zZUJokF-9">
          <mxGeometry x="400" y="1070" width="120" height="80" as="geometry" />
        </mxCell>
        <mxCell id="9zBWlCoCutwd3zZUJokF-50" value="Enters login credentals" style="ellipse;whiteSpace=wrap;html=1;" vertex="1" parent="9zBWlCoCutwd3zZUJokF-9">
          <mxGeometry x="50" y="1045" width="120" height="80" as="geometry" />
        </mxCell>
        <mxCell id="9zBWlCoCutwd3zZUJokF-51" value="Authenticates" style="ellipse;whiteSpace=wrap;html=1;" vertex="1" parent="9zBWlCoCutwd3zZUJokF-9">
          <mxGeometry x="220" y="1020" width="120" height="80" as="geometry" />
        </mxCell>
        <mxCell id="9zBWlCoCutwd3zZUJokF-52" value="Checks" style="endArrow=none;html=1;rounded=0;exitX=1;exitY=0.5;exitDx=0;exitDy=0;entryX=0;entryY=0.5;entryDx=0;entryDy=0;" edge="1" parent="9zBWlCoCutwd3zZUJokF-9" source="9zBWlCoCutwd3zZUJokF-50" target="9zBWlCoCutwd3zZUJokF-51">
          <mxGeometry width="50" height="50" relative="1" as="geometry">
            <mxPoint x="230" y="1154" as="sourcePoint" />
            <mxPoint x="280" y="1104" as="targetPoint" />
          </mxGeometry>
        </mxCell>
        <mxCell id="9zBWlCoCutwd3zZUJokF-56" value="Checks" style="endArrow=none;html=1;rounded=0;exitX=1;exitY=0.5;exitDx=0;exitDy=0;entryX=0;entryY=0.5;entryDx=0;entryDy=0;" edge="1" parent="9zBWlCoCutwd3zZUJokF-9" source="9zBWlCoCutwd3zZUJokF-51" target="9zBWlCoCutwd3zZUJokF-49">
          <mxGeometry width="50" height="50" relative="1" as="geometry">
            <mxPoint x="180" y="1071" as="sourcePoint" />
            <mxPoint x="370" y="1071" as="targetPoint" />
          </mxGeometry>
        </mxCell>
        <mxCell id="9zBWlCoCutwd3zZUJokF-62" value="Updates" style="ellipse;whiteSpace=wrap;html=1;" vertex="1" parent="9zBWlCoCutwd3zZUJokF-9">
          <mxGeometry x="90" y="1180" width="120" height="80" as="geometry" />
        </mxCell>
        <mxCell id="9zBWlCoCutwd3zZUJokF-63" value="Deletes" style="ellipse;whiteSpace=wrap;html=1;" vertex="1" parent="9zBWlCoCutwd3zZUJokF-9">
          <mxGeometry x="220" y="1180" width="120" height="80" as="geometry" />
        </mxCell>
        <mxCell id="9zBWlCoCutwd3zZUJokF-64" value="Creates" style="ellipse;whiteSpace=wrap;html=1;" vertex="1" parent="9zBWlCoCutwd3zZUJokF-9">
          <mxGeometry x="350" y="1180" width="120" height="80" as="geometry" />
        </mxCell>
        <mxCell id="9zBWlCoCutwd3zZUJokF-65" value="Updates" style="endArrow=none;html=1;rounded=0;exitX=0.5;exitY=0;exitDx=0;exitDy=0;entryX=0;entryY=1;entryDx=0;entryDy=0;" edge="1" parent="9zBWlCoCutwd3zZUJokF-9" source="9zBWlCoCutwd3zZUJokF-62" target="9zBWlCoCutwd3zZUJokF-51">
          <mxGeometry width="50" height="50" relative="1" as="geometry">
            <mxPoint x="180" y="1095" as="sourcePoint" />
            <mxPoint x="230" y="1070" as="targetPoint" />
          </mxGeometry>
        </mxCell>
        <mxCell id="9zBWlCoCutwd3zZUJokF-66" value="Updates" style="endArrow=none;html=1;rounded=0;exitX=0.5;exitY=0;exitDx=0;exitDy=0;entryX=0.5;entryY=1;entryDx=0;entryDy=0;" edge="1" parent="9zBWlCoCutwd3zZUJokF-9" source="9zBWlCoCutwd3zZUJokF-63" target="9zBWlCoCutwd3zZUJokF-51">
          <mxGeometry width="50" height="50" relative="1" as="geometry">
            <mxPoint x="190" y="1105" as="sourcePoint" />
            <mxPoint x="240" y="1080" as="targetPoint" />
          </mxGeometry>
        </mxCell>
        <mxCell id="9zBWlCoCutwd3zZUJokF-67" value="Updates" style="endArrow=none;html=1;rounded=0;exitX=0.5;exitY=0;exitDx=0;exitDy=0;entryX=1;entryY=1;entryDx=0;entryDy=0;" edge="1" parent="9zBWlCoCutwd3zZUJokF-9" source="9zBWlCoCutwd3zZUJokF-64" target="9zBWlCoCutwd3zZUJokF-51">
          <mxGeometry width="50" height="50" relative="1" as="geometry">
            <mxPoint x="290" y="1190" as="sourcePoint" />
            <mxPoint x="290" y="1110" as="targetPoint" />
          </mxGeometry>
        </mxCell>
        <mxCell id="9zBWlCoCutwd3zZUJokF-85" value="Edit records&amp;nbsp;" style="ellipse;whiteSpace=wrap;html=1;" vertex="1" parent="9zBWlCoCutwd3zZUJokF-9">
          <mxGeometry x="60" y="1390" width="120" height="80" as="geometry" />
        </mxCell>
        <mxCell id="9zBWlCoCutwd3zZUJokF-83" value="Updates Database" style="ellipse;whiteSpace=wrap;html=1;" vertex="1" parent="9zBWlCoCutwd3zZUJokF-9">
          <mxGeometry x="400" y="1430" width="120" height="80" as="geometry" />
        </mxCell>
        <mxCell id="9zBWlCoCutwd3zZUJokF-87" value="Checks" style="endArrow=none;html=1;rounded=0;exitX=1;exitY=0.429;exitDx=0;exitDy=0;entryX=0.028;entryY=0.315;entryDx=0;entryDy=0;exitPerimeter=0;entryPerimeter=0;" edge="1" parent="9zBWlCoCutwd3zZUJokF-9" source="9zBWlCoCutwd3zZUJokF-88" target="9zBWlCoCutwd3zZUJokF-83">
          <mxGeometry width="50" height="50" relative="1" as="geometry">
            <mxPoint x="180" y="1471" as="sourcePoint" />
            <mxPoint x="370" y="1471" as="targetPoint" />
          </mxGeometry>
        </mxCell>
        <mxCell id="9zBWlCoCutwd3zZUJokF-90" value="Delete" style="ellipse;whiteSpace=wrap;html=1;" vertex="1" parent="9zBWlCoCutwd3zZUJokF-9">
          <mxGeometry x="230" y="1460" width="120" height="80" as="geometry" />
        </mxCell>
        <mxCell id="9zBWlCoCutwd3zZUJokF-93" value="&lt;span style=&quot;font-size: 12px; text-wrap: wrap; background-color: rgb(27, 29, 30);&quot;&gt;Edit&lt;/span&gt;" style="endArrow=none;html=1;rounded=0;exitX=0;exitY=0.5;exitDx=0;exitDy=0;entryX=0.608;entryY=0.988;entryDx=0;entryDy=0;entryPerimeter=0;" edge="1" parent="9zBWlCoCutwd3zZUJokF-9" source="9zBWlCoCutwd3zZUJokF-90" target="9zBWlCoCutwd3zZUJokF-85">
          <mxGeometry width="50" height="50" relative="1" as="geometry">
            <mxPoint x="290" y="1590" as="sourcePoint" />
            <mxPoint x="290" y="1510" as="targetPoint" />
          </mxGeometry>
        </mxCell>
        <mxCell id="9zBWlCoCutwd3zZUJokF-88" value="Updates" style="ellipse;whiteSpace=wrap;html=1;" vertex="1" parent="9zBWlCoCutwd3zZUJokF-9">
          <mxGeometry x="230" y="1350" width="120" height="80" as="geometry" />
        </mxCell>
        <mxCell id="9zBWlCoCutwd3zZUJokF-91" value="&lt;span style=&quot;font-size: 12px; text-wrap: wrap; background-color: rgb(27, 29, 30);&quot;&gt;Edit&lt;/span&gt;" style="endArrow=none;html=1;rounded=0;exitX=0;exitY=0.5;exitDx=0;exitDy=0;entryX=1;entryY=0.5;entryDx=0;entryDy=0;" edge="1" parent="9zBWlCoCutwd3zZUJokF-9" source="9zBWlCoCutwd3zZUJokF-88" target="9zBWlCoCutwd3zZUJokF-85">
          <mxGeometry width="50" height="50" relative="1" as="geometry">
            <mxPoint x="180" y="1495" as="sourcePoint" />
            <mxPoint x="230" y="1470" as="targetPoint" />
          </mxGeometry>
        </mxCell>
        <mxCell id="9zBWlCoCutwd3zZUJokF-99" value="Checks" style="endArrow=none;html=1;rounded=0;exitX=1;exitY=0.5;exitDx=0;exitDy=0;entryX=0;entryY=0.5;entryDx=0;entryDy=0;" edge="1" parent="9zBWlCoCutwd3zZUJokF-9" source="9zBWlCoCutwd3zZUJokF-90" target="9zBWlCoCutwd3zZUJokF-83">
          <mxGeometry width="50" height="50" relative="1" as="geometry">
            <mxPoint x="390" y="1394" as="sourcePoint" />
            <mxPoint x="460" y="1520" as="targetPoint" />
          </mxGeometry>
        </mxCell>
        <mxCell id="9zBWlCoCutwd3zZUJokF-10" value="Sever" style="shape=umlActor;verticalLabelPosition=bottom;verticalAlign=top;html=1;outlineConnect=0;" vertex="1" parent="1">
          <mxGeometry x="760" y="303" width="90" height="170" as="geometry" />
        </mxCell>
        <mxCell id="9zBWlCoCutwd3zZUJokF-11" value="Updates" style="endArrow=none;html=1;rounded=0;exitX=1;exitY=0.5;exitDx=0;exitDy=0;entryX=0;entryY=0.3333333333333333;entryDx=0;entryDy=0;entryPerimeter=0;" edge="1" parent="1" source="9zBWlCoCutwd3zZUJokF-6" target="9zBWlCoCutwd3zZUJokF-10">
          <mxGeometry width="50" height="50" relative="1" as="geometry">
            <mxPoint x="600" y="413" as="sourcePoint" />
            <mxPoint x="650" y="363" as="targetPoint" />
          </mxGeometry>
        </mxCell>
        <mxCell id="9zBWlCoCutwd3zZUJokF-27" value="Sever" style="shape=umlActor;verticalLabelPosition=bottom;verticalAlign=top;html=1;outlineConnect=0;" vertex="1" parent="1">
          <mxGeometry x="760" y="643" width="90" height="170" as="geometry" />
        </mxCell>
        <mxCell id="9zBWlCoCutwd3zZUJokF-28" value="Notify" style="endArrow=none;html=1;rounded=0;exitX=1;exitY=0.5;exitDx=0;exitDy=0;entryX=0;entryY=0.3333333333333333;entryDx=0;entryDy=0;entryPerimeter=0;" edge="1" parent="1" source="9zBWlCoCutwd3zZUJokF-24" target="9zBWlCoCutwd3zZUJokF-27">
          <mxGeometry width="50" height="50" relative="1" as="geometry">
            <mxPoint x="600" y="706" as="sourcePoint" />
            <mxPoint x="650" y="656" as="targetPoint" />
          </mxGeometry>
        </mxCell>
        <mxCell id="9zBWlCoCutwd3zZUJokF-33" value="Notify" style="endArrow=none;html=1;rounded=0;exitX=1;exitY=0.5;exitDx=0;exitDy=0;entryX=0;entryY=0.3333333333333333;entryDx=0;entryDy=0;entryPerimeter=0;" edge="1" parent="1" source="9zBWlCoCutwd3zZUJokF-31" target="9zBWlCoCutwd3zZUJokF-27">
          <mxGeometry width="50" height="50" relative="1" as="geometry">
            <mxPoint x="580" y="613" as="sourcePoint" />
            <mxPoint x="770" y="663" as="targetPoint" />
          </mxGeometry>
        </mxCell>
        <mxCell id="9zBWlCoCutwd3zZUJokF-20" value="Admin" style="shape=umlActor;verticalLabelPosition=bottom;verticalAlign=top;html=1;outlineConnect=0;" vertex="1" parent="1">
          <mxGeometry x="40" y="633" width="90" height="170" as="geometry" />
        </mxCell>
        <mxCell id="9zBWlCoCutwd3zZUJokF-21" value="" style="endArrow=classic;html=1;rounded=0;exitX=1;exitY=0.3333333333333333;exitDx=0;exitDy=0;exitPerimeter=0;entryX=0;entryY=0.5;entryDx=0;entryDy=0;" edge="1" parent="1" source="9zBWlCoCutwd3zZUJokF-20" target="9zBWlCoCutwd3zZUJokF-23">
          <mxGeometry width="50" height="50" relative="1" as="geometry">
            <mxPoint x="190" y="646" as="sourcePoint" />
            <mxPoint x="240" y="596" as="targetPoint" />
          </mxGeometry>
        </mxCell>
        <mxCell id="9zBWlCoCutwd3zZUJokF-22" value="Looks up information" style="edgeLabel;html=1;align=center;verticalAlign=middle;resizable=0;points=[];" vertex="1" connectable="0" parent="9zBWlCoCutwd3zZUJokF-21">
          <mxGeometry x="-0.0842" y="1" relative="1" as="geometry">
            <mxPoint x="10" y="3" as="offset" />
          </mxGeometry>
        </mxCell>
        <mxCell id="9zBWlCoCutwd3zZUJokF-34" value="Notify" style="endArrow=none;html=1;rounded=0;exitX=1;exitY=0.3333333333333333;exitDx=0;exitDy=0;entryX=0;entryY=0.5;entryDx=0;entryDy=0;exitPerimeter=0;" edge="1" parent="1" source="9zBWlCoCutwd3zZUJokF-20" target="9zBWlCoCutwd3zZUJokF-30">
          <mxGeometry width="50" height="50" relative="1" as="geometry">
            <mxPoint x="590" y="623" as="sourcePoint" />
            <mxPoint x="780" y="673" as="targetPoint" />
          </mxGeometry>
        </mxCell>
        <mxCell id="9zBWlCoCutwd3zZUJokF-60" value="Sever" style="shape=umlActor;verticalLabelPosition=bottom;verticalAlign=top;html=1;outlineConnect=0;" vertex="1" parent="1">
          <mxGeometry x="770" y="1235" width="90" height="170" as="geometry" />
        </mxCell>
        <mxCell id="9zBWlCoCutwd3zZUJokF-57" value="Admin" style="shape=umlActor;verticalLabelPosition=bottom;verticalAlign=top;html=1;outlineConnect=0;" vertex="1" parent="1">
          <mxGeometry x="40" y="1235" width="90" height="170" as="geometry" />
        </mxCell>
        <mxCell id="9zBWlCoCutwd3zZUJokF-58" value="" style="endArrow=classic;html=1;rounded=0;exitX=1;exitY=0.3333333333333333;exitDx=0;exitDy=0;exitPerimeter=0;entryX=0;entryY=0.5;entryDx=0;entryDy=0;" edge="1" parent="1" source="9zBWlCoCutwd3zZUJokF-57" target="9zBWlCoCutwd3zZUJokF-50">
          <mxGeometry width="50" height="50" relative="1" as="geometry">
            <mxPoint x="70" y="1290.666666666667" as="sourcePoint" />
            <mxPoint x="180" y="1234" as="targetPoint" />
          </mxGeometry>
        </mxCell>
        <mxCell id="9zBWlCoCutwd3zZUJokF-61" value="Updates" style="endArrow=none;html=1;rounded=0;exitX=1;exitY=0.5;exitDx=0;exitDy=0;entryX=0;entryY=0.3333333333333333;entryDx=0;entryDy=0;entryPerimeter=0;" edge="1" parent="1" source="9zBWlCoCutwd3zZUJokF-49" target="9zBWlCoCutwd3zZUJokF-60">
          <mxGeometry width="50" height="50" relative="1" as="geometry">
            <mxPoint x="550" y="1344" as="sourcePoint" />
            <mxPoint x="769.9999999999995" y="1290.666666666667" as="targetPoint" />
          </mxGeometry>
        </mxCell>
        <mxCell id="9zBWlCoCutwd3zZUJokF-94" value="Sever" style="shape=umlActor;verticalLabelPosition=bottom;verticalAlign=top;html=1;outlineConnect=0;" vertex="1" parent="1">
          <mxGeometry x="770" y="1605" width="90" height="170" as="geometry" />
        </mxCell>
        <mxCell id="9zBWlCoCutwd3zZUJokF-95" value="Admin" style="shape=umlActor;verticalLabelPosition=bottom;verticalAlign=top;html=1;outlineConnect=0;" vertex="1" parent="1">
          <mxGeometry x="40" y="1605" width="90" height="170" as="geometry" />
        </mxCell>
        <mxCell id="9zBWlCoCutwd3zZUJokF-97" value="Updates" style="endArrow=none;html=1;rounded=0;exitX=1;exitY=0.5;exitDx=0;exitDy=0;entryX=0;entryY=0.3333333333333333;entryDx=0;entryDy=0;entryPerimeter=0;" edge="1" parent="1" source="9zBWlCoCutwd3zZUJokF-83" target="9zBWlCoCutwd3zZUJokF-94">
          <mxGeometry width="50" height="50" relative="1" as="geometry">
            <mxPoint x="550" y="1714" as="sourcePoint" />
            <mxPoint x="769.9999999999995" y="1660.666666666667" as="targetPoint" />
          </mxGeometry>
        </mxCell>
        <mxCell id="9zBWlCoCutwd3zZUJokF-86" value="&lt;span style=&quot;font-size: 12px; text-wrap: wrap; background-color: rgb(27, 29, 30);&quot;&gt;Authenticates&lt;/span&gt;" style="endArrow=none;html=1;rounded=0;exitX=1;exitY=0.3333333333333333;exitDx=0;exitDy=0;entryX=0;entryY=0.5;entryDx=0;entryDy=0;exitPerimeter=0;" edge="1" parent="1" source="9zBWlCoCutwd3zZUJokF-95" target="9zBWlCoCutwd3zZUJokF-85">
          <mxGeometry width="50" height="50" relative="1" as="geometry">
            <mxPoint x="130" y="1691.6666666666665" as="sourcePoint" />
            <mxPoint x="420" y="1694" as="targetPoint" />
          </mxGeometry>
        </mxCell>
      </root>
    </mxGraphModel>
  </diagram>
</mxfile>
